# 3ds Max Wavefront OBJ Exporter v0.99 - (c)2007 guruware
# File Created: 11.03.2025 16:13:28

mtllib FilledEyes.mtl

#
# object FilledEyes
#

v  -0.0417 -0.0691 1.5850
v  -0.0428 -0.0670 1.5835
v  -0.0395 -0.0678 1.5833
v  -0.0386 -0.0717 1.5862
v  -0.0432 -0.0647 1.5816
v  -0.0402 -0.0655 1.5813
v  -0.0416 -0.0638 1.5791
v  -0.0393 -0.0644 1.5794
v  -0.0388 -0.0659 1.5771
v  -0.0366 -0.0665 1.5811
v  -0.0369 -0.0699 1.5843
v  -0.0369 -0.0652 1.5780
v  -0.0328 -0.0679 1.5806
v  -0.0343 -0.0741 1.5865
v  -0.0329 -0.0720 1.5847
v  -0.0300 -0.0759 1.5862
v  -0.0286 -0.0695 1.5798
v  -0.0292 -0.0734 1.5842
v  -0.0332 -0.0669 1.5773
v  -0.0346 -0.0680 1.5754
v  -0.0290 -0.0692 1.5765
v  -0.0301 -0.0706 1.5750
v  -0.0257 -0.0730 1.5751
v  -0.0215 -0.0744 1.5747
v  -0.0247 -0.0708 1.5757
v  -0.0246 -0.0712 1.5795
v  -0.0208 -0.0720 1.5749
v  -0.0180 -0.0746 1.5737
v  -0.0209 -0.0727 1.5786
v  -0.0257 -0.0746 1.5831
v  -0.0218 -0.0749 1.5811
v  -0.0259 -0.0769 1.5850
v  -0.0223 -0.0774 1.5830
v  -0.0204 -0.0748 1.5800
v  -0.0195 -0.0774 1.5814
v  -0.0178 -0.0772 1.5799
v  -0.0182 -0.0738 1.5771
v  -0.0165 -0.0766 1.5779
v  -0.0173 -0.0731 1.5747
v  -0.0157 -0.0745 1.5743
v  -0.0157 -0.0758 1.5765
v  0.0178 -0.0772 1.5799
v  0.0198 -0.0748 1.5797
v  0.0195 -0.0774 1.5814
v  0.0223 -0.0774 1.5830
v  0.0257 -0.0746 1.5831
v  0.0259 -0.0769 1.5850
v  0.0300 -0.0759 1.5862
v  0.0218 -0.0749 1.5811
v  0.0292 -0.0734 1.5842
v  0.0246 -0.0712 1.5795
v  0.0209 -0.0727 1.5786
v  0.0183 -0.0736 1.5773
v  0.0165 -0.0766 1.5779
v  0.0247 -0.0708 1.5757
v  0.0157 -0.0758 1.5765
v  0.0208 -0.0720 1.5749
v  0.0157 -0.0745 1.5743
v  0.0173 -0.0731 1.5747
v  0.0180 -0.0746 1.5737
v  0.0215 -0.0744 1.5747
v  0.0257 -0.0730 1.5751
v  0.0329 -0.0720 1.5847
v  0.0343 -0.0741 1.5865
v  0.0417 -0.0691 1.5850
v  0.0386 -0.0717 1.5862
v  0.0395 -0.0678 1.5833
v  0.0428 -0.0670 1.5835
v  0.0369 -0.0699 1.5843
v  0.0402 -0.0655 1.5813
v  0.0432 -0.0647 1.5816
v  0.0366 -0.0665 1.5811
v  0.0328 -0.0679 1.5806
v  0.0286 -0.0695 1.5798
v  0.0369 -0.0652 1.5780
v  0.0290 -0.0692 1.5765
v  0.0301 -0.0706 1.5750
v  0.0332 -0.0669 1.5773
v  0.0346 -0.0680 1.5754
v  0.0388 -0.0659 1.5771
v  0.0393 -0.0644 1.5794
v  0.0416 -0.0638 1.5791
# 82 vertices

vn -0.3880 -0.6983 -0.6015
vn -0.2841 -0.6826 -0.6734
vn -0.2300 -0.6452 -0.7285
vn -0.3775 -0.7470 -0.5473
vn -0.2081 -0.8101 -0.5482
vn -0.2370 -0.7340 -0.6365
vn -0.1048 -0.9666 0.2339
vn -0.3093 -0.9401 -0.1435
vn 0.0295 -0.6167 0.7867
vn -0.3239 -0.7530 -0.5728
vn -0.2583 -0.6269 -0.7350
vn -0.3051 -0.9390 0.1586
vn -0.3676 -0.7633 -0.5313
vn -0.3488 -0.7699 -0.5345
vn -0.2999 -0.6213 -0.7240
vn -0.3556 -0.8140 -0.4593
vn -0.4057 -0.7964 -0.4485
vn -0.3600 -0.6060 -0.7094
vn -0.4056 -0.8908 0.2047
vn -0.0983 -0.5154 0.8513
vn -0.3844 -0.8524 0.3544
vn -0.1916 -0.4179 0.8880
vn -0.0474 -0.4115 0.9102
vn 0.0642 -0.4832 0.8731
vn -0.2478 -0.8642 0.4379
vn -0.4067 -0.7997 -0.4416
vn -0.1940 -0.8798 0.4340
vn 0.0241 -0.6046 0.7962
vn -0.4374 -0.8036 -0.4036
vn -0.4118 -0.5742 -0.7076
vn -0.4328 -0.5616 -0.7051
vn -0.3272 -0.8522 -0.4083
vn -0.3254 -0.8219 -0.4675
vn -0.5219 -0.5463 -0.6551
vn -0.3654 -0.7871 -0.4970
vn -0.4539 -0.6974 -0.5546
vn -0.5225 -0.7199 -0.4568
vn -0.5847 -0.6305 -0.5104
vn -0.4460 -0.8791 0.1683
vn -0.6734 -0.7196 0.1693
vn -0.7032 -0.5653 -0.4312
vn 0.4536 -0.7003 -0.5512
vn 0.5281 -0.5493 -0.6476
vn 0.3720 -0.7884 -0.4899
vn 0.3277 -0.8148 -0.4783
vn 0.4118 -0.5742 -0.7076
vn 0.3272 -0.8522 -0.4083
vn 0.3556 -0.8140 -0.4593
vn 0.4246 -0.5666 -0.7062
vn 0.3600 -0.6060 -0.7094
vn 0.4067 -0.7997 -0.4416
vn 0.4232 -0.8106 -0.4048
vn 0.5165 -0.7374 -0.4353
vn 0.5933 -0.6191 -0.5144
vn 0.2478 -0.8642 0.4379
vn 0.7086 -0.5600 -0.4293
vn 0.1821 -0.8782 0.4424
vn 0.6784 -0.7173 0.1588
vn 0.4497 -0.8744 0.1821
vn -0.0241 -0.6046 0.7962
vn -0.0642 -0.4832 0.8731
vn 0.0474 -0.4115 0.9102
vn 0.2999 -0.6213 -0.7240
vn 0.3488 -0.7699 -0.5345
vn 0.3880 -0.6983 -0.6015
vn 0.3775 -0.7470 -0.5473
vn 0.2301 -0.6452 -0.7285
vn 0.2841 -0.6826 -0.6734
vn 0.2583 -0.6269 -0.7350
vn 0.2370 -0.7340 -0.6365
vn 0.2081 -0.8101 -0.5482
vn 0.3239 -0.7530 -0.5728
vn 0.3676 -0.7633 -0.5313
vn 0.4057 -0.7964 -0.4485
vn 0.3051 -0.9390 0.1586
vn 0.3844 -0.8524 0.3544
vn 0.1916 -0.4179 0.8880
vn 0.4056 -0.8908 0.2047
vn 0.0983 -0.5154 0.8513
vn -0.0295 -0.6167 0.7867
vn 0.3093 -0.9401 -0.1435
vn 0.1049 -0.9666 0.2339
# 82 vertex normals

vt 0.2853 0.2547 0.0000
vt 0.2827 0.2515 0.0000
vt 0.2870 0.2515 0.0000
vt 0.2904 0.2573 0.0000
vt 0.2808 0.2474 0.0000
vt 0.2847 0.2477 0.0000
vt 0.2825 0.2440 0.0000
vt 0.2854 0.2449 0.0000
vt 0.2866 0.2416 0.0000
vt 0.2895 0.2479 0.0000
vt 0.2911 0.2537 0.0000
vt 0.2885 0.2438 0.0000
vt 0.2946 0.2479 0.0000
vt 0.2966 0.2586 0.0000
vt 0.2969 0.2549 0.0000
vt 0.3026 0.2588 0.0000
vt 0.3002 0.2474 0.0000
vt 0.3019 0.2547 0.0000
vt 0.2936 0.2436 0.0000
vt 0.2923 0.2405 0.0000
vt 0.2995 0.2432 0.0000
vt 0.2986 0.2402 0.0000
vt 0.3047 0.2400 0.0000
vt 0.3102 0.2401 0.0000
vt 0.3053 0.2431 0.0000
vt 0.3057 0.2477 0.0000
vt 0.3105 0.2430 0.0000
vt 0.3146 0.2409 0.0000
vt 0.3107 0.2473 0.0000
vt 0.3066 0.2534 0.0000
vt 0.3112 0.2514 0.0000
vt 0.3079 0.2575 0.0000
vt 0.3122 0.2551 0.0000
vt 0.3149 0.2501 0.0000
vt 0.3156 0.2528 0.0000
vt 0.3174 0.2506 0.0000
vt 0.3159 0.2467 0.0000
vt 0.3185 0.2479 0.0000
vt 0.3148 0.2432 0.0000
vt 0.3171 0.2428 0.0000
vt 0.3184 0.2457 0.0000
vt 0.3764 0.2506 0.0000
vt 0.3789 0.2501 0.0000
vt 0.3782 0.2528 0.0000
vt 0.3816 0.2551 0.0000
vt 0.3872 0.2533 0.0000
vt 0.3860 0.2574 0.0000
vt 0.3913 0.2587 0.0000
vt 0.3826 0.2514 0.0000
vt 0.3919 0.2546 0.0000
vt 0.3881 0.2476 0.0000
vt 0.3831 0.2473 0.0000
vt 0.3779 0.2467 0.0000
vt 0.3753 0.2479 0.0000
vt 0.3885 0.2430 0.0000
vt 0.3754 0.2457 0.0000
vt 0.3833 0.2429 0.0000
vt 0.3766 0.2428 0.0000
vt 0.3790 0.2432 0.0000
vt 0.3791 0.2409 0.0000
vt 0.3835 0.2401 0.0000
vt 0.3890 0.2399 0.0000
vt 0.3969 0.2548 0.0000
vt 0.3973 0.2585 0.0000
vt 0.4086 0.2545 0.0000
vt 0.4035 0.2572 0.0000
vt 0.4068 0.2513 0.0000
vt 0.4111 0.2513 0.0000
vt 0.4027 0.2535 0.0000
vt 0.4090 0.2475 0.0000
vt 0.4130 0.2472 0.0000
vt 0.4042 0.2477 0.0000
vt 0.3992 0.2477 0.0000
vt 0.3936 0.2473 0.0000
vt 0.4052 0.2436 0.0000
vt 0.3943 0.2431 0.0000
vt 0.3951 0.2401 0.0000
vt 0.4001 0.2435 0.0000
vt 0.4014 0.2403 0.0000
vt 0.4071 0.2415 0.0000
vt 0.4083 0.2447 0.0000
vt 0.4112 0.2438 0.0000
# 82 texture coords

o FilledEyes
g FilledEyes
usemtl wire_143224087
s 1
f 1/1/1 2/2/2 3/3/3 
f 3/3/3 4/4/4 1/1/1 
f 2/2/2 5/5/5 6/6/6 
f 3/3/3 2/2/2 6/6/6 
f 7/7/7 6/6/6 5/5/5 
f 6/6/6 7/7/7 8/8/8 
f 7/7/7 9/9/9 8/8/8 
f 6/6/6 10/10/10 3/3/3 
f 8/8/8 10/10/10 6/6/6 
f 3/3/3 11/11/11 4/4/4 
f 11/11/11 3/3/3 10/10/10 
f 10/10/10 8/8/8 12/12/12 
f 12/12/12 8/8/8 9/9/9 
f 13/13/13 11/11/11 10/10/10 
f 13/13/13 10/10/10 12/12/12 
f 11/11/11 14/14/14 4/4/4 
f 11/11/11 13/13/13 15/15/15 
f 14/14/14 11/11/11 15/15/15 
f 15/15/15 16/16/16 14/14/14 
f 17/17/17 15/15/15 13/13/13 
f 15/15/15 17/17/17 18/18/18 
f 16/16/16 15/15/15 18/18/18 
f 17/17/17 13/13/13 19/19/19 
f 13/13/13 12/12/12 19/19/19 
f 19/19/19 12/12/12 20/20/20 
f 12/12/12 9/9/9 20/20/20 
f 17/17/17 19/19/19 21/21/21 
f 20/20/20 22/22/22 19/19/19 
f 21/21/21 19/19/19 22/22/22 
f 23/23/23 21/21/21 22/22/22 
f 24/24/24 25/25/25 23/23/23 
f 21/21/21 23/23/23 25/25/25 
f 26/26/26 21/21/21 25/25/25 
f 26/26/26 17/17/17 21/21/21 
f 18/18/18 17/17/17 26/26/26 
f 25/25/25 24/24/24 27/27/27 
f 28/28/28 27/27/27 24/24/24 
f 29/29/29 26/26/26 25/25/25 
f 29/29/29 25/25/25 27/27/27 
f 18/18/18 26/26/26 30/30/30 
f 30/30/30 16/16/16 18/18/18 
f 31/31/31 26/26/26 29/29/29 
f 26/26/26 31/31/31 30/30/30 
f 16/16/16 30/30/30 32/32/32 
f 33/33/33 30/30/30 31/31/31 
f 30/30/30 33/33/33 32/32/32 
f 29/29/29 34/34/34 31/31/31 
f 34/34/34 33/33/33 31/31/31 
f 33/33/33 34/34/34 35/35/35 
f 36/36/36 35/35/35 34/34/34 
f 37/37/37 36/36/36 34/34/34 
f 34/34/34 29/29/29 37/37/37 
f 27/27/27 37/37/37 29/29/29 
f 36/36/36 37/37/37 38/38/38 
f 37/37/37 27/27/27 39/39/39 
f 27/27/27 28/28/28 39/39/39 
f 37/37/37 39/39/39 40/40/40 
f 28/28/28 40/40/40 39/39/39 
f 37/37/37 41/41/41 38/38/38 
f 40/40/40 41/41/41 37/37/37 
f 42/42/42 43/43/43 44/44/44 
f 45/45/45 46/46/46 47/47/47 
f 48/48/48 47/47/47 46/46/46 
f 44/44/44 49/49/49 45/45/45 
f 46/46/46 45/45/45 49/49/49 
f 49/49/49 44/44/44 43/43/43 
f 48/48/48 46/46/46 50/50/50 
f 49/49/49 51/51/51 46/46/46 
f 51/51/51 50/50/50 46/46/46 
f 43/43/43 52/52/52 49/49/49 
f 51/51/51 49/49/49 52/52/52 
f 42/42/42 53/53/53 43/43/43 
f 52/52/52 43/43/43 53/53/53 
f 53/53/53 42/42/42 54/54/54 
f 52/52/52 55/55/55 51/51/51 
f 53/53/53 54/54/54 56/56/56 
f 53/53/53 57/57/57 52/52/52 
f 55/55/55 52/52/52 57/57/57 
f 58/58/58 53/53/53 56/56/56 
f 57/57/57 53/53/53 59/59/59 
f 53/53/53 58/58/58 59/59/59 
f 57/57/57 59/59/59 60/60/60 
f 60/60/60 59/59/59 58/58/58 
f 60/60/60 61/61/61 57/57/57 
f 55/55/55 57/57/57 61/61/61 
f 61/61/61 62/62/62 55/55/55 
f 48/48/48 63/63/63 64/64/64 
f 63/63/63 48/48/48 50/50/50 
f 65/65/65 66/66/66 67/67/67 
f 65/65/65 67/67/67 68/68/68 
f 64/64/64 69/69/69 66/66/66 
f 67/67/67 66/66/66 69/69/69 
f 69/69/69 64/64/64 63/63/63 
f 67/67/67 70/70/70 68/68/68 
f 68/68/68 70/70/70 71/71/71 
f 67/67/67 69/69/69 72/72/72 
f 67/67/67 72/72/72 70/70/70 
f 69/69/69 63/63/63 73/73/73 
f 69/69/69 73/73/73 72/72/72 
f 63/63/63 50/50/50 74/74/74 
f 63/63/63 74/74/74 73/73/73 
f 50/50/50 51/51/51 74/74/74 
f 73/73/73 75/75/75 72/72/72 
f 51/51/51 76/76/76 74/74/74 
f 76/76/76 51/51/51 55/55/55 
f 76/76/76 55/55/55 62/62/62 
f 62/62/62 77/77/77 76/76/76 
f 74/74/74 78/78/78 73/73/73 
f 78/78/78 74/74/74 76/76/76 
f 78/78/78 76/76/76 77/77/77 
f 75/75/75 73/73/73 78/78/78 
f 77/77/77 79/79/79 78/78/78 
f 79/79/79 75/75/75 78/78/78 
f 79/79/79 80/80/80 75/75/75 
f 81/81/81 72/72/72 75/75/75 
f 75/75/75 80/80/80 81/81/81 
f 72/72/72 81/81/81 70/70/70 
f 80/80/80 82/82/82 81/81/81 
f 82/82/82 70/70/70 81/81/81 
f 70/70/70 82/82/82 71/71/71 
# 0 polygons - 120 triangles

