# Blender 4.4.0
# www.blender.org
mtllib IceShard.mtl
o IceShardTiny
v 0.224747 0.001283 -0.099432
v -0.350499 0.036083 0.037747
v -0.022845 -0.061276 -0.076242
v 0.050101 0.053177 0.083147
v 0.012934 -0.071907 0.083147
vn -0.1877 0.4123 -0.8915
vn 0.6785 -0.2016 0.7064
vn 0.2330 -0.9654 -0.1167
vn -0.1140 0.0339 0.9929
vn -0.2848 -0.9586 -0.0000
vn -0.0091 0.9596 -0.2814
vt 0.000000 1.000000
vt 0.476903 0.284799
vt 0.442511 0.608530
vt 1.000000 0.000000
vt 1.000000 0.500000
vt 0.000000 0.500000
vt 0.000000 0.000000
vt 0.500000 0.500000
vt 1.000000 1.000000
s 0
usemtl Ice.001
f 2/1/1 1/2/1 3/3/1
f 1/4/2 4/5/2 5/6/2
f 1/7/3 5/5/3 3/8/3
f 4/5/4 2/1/4 5/6/4
f 5/5/5 2/9/5 3/8/5
f 2/1/6 4/6/6 1/2/6
